<svg xmlns="http://www.w3.org/2000/svg" viewBox="0 0 128 128" role="img" aria-label="AgentC">
  <defs>
    <radialGradient id="gHead" cx="38%" cy="30%" r="70%">
      <stop offset="0%" stop-color="#7dd3fc" stop-opacity="1" />
      <stop offset="55%" stop-color="#22a6f2" stop-opacity="1" />
      <stop offset="100%" stop-color="#0b6db8" stop-opacity="1" />
    </radialGradient>
    <linearGradient id="gShine" x1="0" y1="0" x2="1" y2="1">
      <stop offset="0%" stop-color="#ffffff" stop-opacity="0.35" />
      <stop offset="55%" stop-color="#ffffff" stop-opacity="0.08" />
      <stop offset="100%" stop-color="#ffffff" stop-opacity="0" />
    </linearGradient>
  </defs>

  <rect width="128" height="128" fill="none" />

  <!-- Head + drop -->
  <path
    d="M64 10c11 0 20 8 20 18 0 7-4 14-10 18 18 5 30 21 30 41 0 24-18 41-40 41S24 111 24 87c0-20 12-36 30-41-6-4-10-11-10-18 0-10 9-18 20-18z"
    fill="url(#gHead)"
  />
  <path
    d="M46 28c4-10 18-16 30-10 5 2 9 6 10 10-6-6-17-7-25-4-8 3-13 9-15 14z"
    fill="url(#gShine)"
  />

  <!-- Sunglasses -->
  <g transform="translate(0,2)">
    <rect x="30" y="55" width="30" height="18" rx="9" fill="#0b0b0c" opacity="0.92" />
    <rect x="68" y="55" width="30" height="18" rx="9" fill="#0b0b0c" opacity="0.92" />
    <rect x="60" y="60" width="8" height="6" rx="3" fill="#111114" opacity="0.85" />
    <path d="M30 60c8-8 22-8 30 0" fill="none" stroke="#0f0f11" stroke-width="4" stroke-linecap="round" opacity="0.7" />
    <path d="M68 60c8-8 22-8 30 0" fill="none" stroke="#0f0f11" stroke-width="4" stroke-linecap="round" opacity="0.7" />
  </g>

  <!-- Suit -->
  <path
    d="M44 100c6 10 14 18 20 18s14-8 20-18c-5-6-12-10-20-10s-15 4-20 10z"
    fill="#0d0f13"
    opacity="0.96"
  />
  <path d="M64 90l-10 10 10 18 10-18z" fill="#111827" opacity="0.9" />
  <path d="M54 100l10 12 10-12" fill="none" stroke="#ffffff" stroke-opacity="0.08" stroke-width="4" stroke-linecap="round" />

  <!-- Small highlight ring -->
  <circle cx="88" cy="42" r="10" fill="#ffffff" opacity="0.08" />
</svg>

