<svg xmlns="http://www.w3.org/2000/svg" viewBox="0 0 128 128" role="img" aria-label="AgenT101">
  <defs>
    <radialGradient id="g" cx="40%" cy="28%" r="78%">
      <stop offset="0%" stop-color="#a5d8ff"/>
      <stop offset="60%" stop-color="#5aa7ff"/>
      <stop offset="100%" stop-color="#2b6bd6"/>
    </radialGradient>
  </defs>
  <circle cx="64" cy="64" r="62" fill="url(#g)"/>
  <circle cx="64" cy="64" r="62" fill="none" stroke="rgba(0,0,0,.18)" stroke-width="4"/>

  <!-- sunglasses -->
  <g transform="translate(0,6)">
    <rect x="26" y="56" width="34" height="18" rx="9" fill="#0b0b0c" opacity="0.92"/>
    <rect x="68" y="56" width="34" height="18" rx="9" fill="#0b0b0c" opacity="0.92"/>
    <rect x="60" y="60" width="8" height="6" rx="3" fill="#111114" opacity="0.85"/>
    <path d="M26 61c9-8 25-8 34 0" fill="none" stroke="#0f0f11" stroke-width="4" stroke-linecap="round" opacity="0.7"/>
    <path d="M68 61c9-8 25-8 34 0" fill="none" stroke="#0f0f11" stroke-width="4" stroke-linecap="round" opacity="0.7"/>
  </g>

  <!-- label -->
  <text x="64" y="40" text-anchor="middle" font-family="ui-sans-serif,system-ui,-apple-system,Segoe UI,Roboto,Helvetica,Arial" font-size="20" font-weight="800" fill="rgba(255,255,255,.92)">T101</text>

  <!-- smile -->
  <path d="M46 86c10 10 26 10 36 0" fill="none" stroke="rgba(0,0,0,.18)" stroke-width="4" stroke-linecap="round"/>

  <!-- head nub -->
  <path d="M64 8c10 0 14 6 14 14 0 10-6 16-14 16s-14-6-14-16c0-8 4-14 14-14z" fill="url(#g)"/>
  <path d="M56 20c2-7 12-9 18-5 3 2 5 5 5 7-4-4-11-4-16-2-5 2-8 6-9 9z" fill="rgba(255,255,255,.22)"/>
</svg>

